<svg width="146" height="107" viewBox="0 0 146 107" fill="none" xmlns="http://www.w3.org/2000/svg">
<path d="M12.28 43.48C10.2267 43.48 8.41333 43.1333 6.84 42.44C5.26667 41.72 4.02667 40.7067 3.12 39.4C2.21333 38.0667 1.74667 36.4533 1.72 34.56H7.12C7.17333 35.8667 7.64 36.9733 8.52 37.88C9.42667 38.76 10.6667 39.2 12.24 39.2C13.6 39.2 14.68 38.88 15.48 38.24C16.28 37.5733 16.68 36.6933 16.68 35.6C16.68 34.4533 16.32 33.56 15.6 32.92C14.9067 32.28 13.9733 31.76 12.8 31.36C11.6267 30.96 10.3733 30.5333 9.04 30.08C6.88 29.3333 5.22667 28.3733 4.08 27.2C2.96 26.0267 2.4 24.4667 2.4 22.52C2.37333 20.8667 2.76 19.4533 3.56 18.28C4.38667 17.08 5.50667 16.16 6.92 15.52C8.33333 14.8533 9.96 14.52 11.8 14.52C13.6667 14.52 15.3067 14.8533 16.72 15.52C18.16 16.1867 19.28 17.12 20.08 18.32C20.9067 19.52 21.3467 20.9467 21.4 22.6H15.92C15.8933 21.6133 15.5067 20.7467 14.76 20C14.04 19.2267 13.0267 18.84 11.72 18.84C10.6 18.8133 9.65333 19.0933 8.88 19.68C8.13333 20.24 7.76 21.0667 7.76 22.16C7.76 23.0933 8.05333 23.84 8.64 24.4C9.22667 24.9333 10.0267 25.3867 11.04 25.76C12.0533 26.1333 13.2133 26.5333 14.52 26.96C15.9067 27.44 17.1733 28 18.32 28.64C19.4667 29.28 20.3867 30.1333 21.08 31.2C21.7733 32.24 22.12 33.5867 22.12 35.24C22.12 36.7067 21.7467 38.0667 21 39.32C20.2533 40.5733 19.1467 41.5867 17.68 42.36C16.2133 43.1067 14.4133 43.48 12.28 43.48ZM26.5872 43V15H31.7072V26.32L42.0672 15H48.3872L38.0672 26.12L48.6672 43H42.3872L34.3872 30.04L31.7072 32.96V43H26.5872ZM52.1731 43V15H57.2931V43H52.1731ZM62.72 43V15H67.84V39H80.24V43H62.72ZM84.7513 43V15H89.8713V39H102.271V43H84.7513Z" fill="black"/>
<path d="M12.28 89.48C10.2267 89.48 8.41333 89.1333 6.84 88.44C5.26667 87.72 4.02667 86.7067 3.12 85.4C2.21333 84.0667 1.74667 82.4533 1.72 80.56H7.12C7.17333 81.8667 7.64 82.9733 8.52 83.88C9.42667 84.76 10.6667 85.2 12.24 85.2C13.6 85.2 14.68 84.88 15.48 84.24C16.28 83.5733 16.68 82.6933 16.68 81.6C16.68 80.4533 16.32 79.56 15.6 78.92C14.9067 78.28 13.9733 77.76 12.8 77.36C11.6267 76.96 10.3733 76.5333 9.04 76.08C6.88 75.3333 5.22667 74.3733 4.08 73.2C2.96 72.0267 2.4 70.4667 2.4 68.52C2.37333 66.8667 2.76 65.4533 3.56 64.28C4.38667 63.08 5.50667 62.16 6.92 61.52C8.33333 60.8533 9.96 60.52 11.8 60.52C13.6667 60.52 15.3067 60.8533 16.72 61.52C18.16 62.1867 19.28 63.12 20.08 64.32C20.9067 65.52 21.3467 66.9467 21.4 68.6H15.92C15.8933 67.6133 15.5067 66.7467 14.76 66C14.04 65.2267 13.0267 64.84 11.72 64.84C10.6 64.8133 9.65333 65.0933 8.88 65.68C8.13333 66.24 7.76 67.0667 7.76 68.16C7.76 69.0933 8.05333 69.84 8.64 70.4C9.22667 70.9333 10.0267 71.3867 11.04 71.76C12.0533 72.1333 13.2133 72.5333 14.52 72.96C15.9067 73.44 17.1733 74 18.32 74.64C19.4667 75.28 20.3867 76.1333 21.08 77.2C21.7733 78.24 22.12 79.5867 22.12 81.24C22.12 82.7067 21.7467 84.0667 21 85.32C20.2533 86.5733 19.1467 87.5867 17.68 88.36C16.2133 89.1067 14.4133 89.48 12.28 89.48ZM26.5872 89V61H31.7072V72.64H44.2672V61H49.3872V89H44.2672V76.8H31.7072V89H26.5872ZM65.7394 89.696C63.3034 89.696 61.2927 89.29 59.7074 88.478C58.122 87.666 56.9427 86.6027 56.1694 85.288C55.396 83.9347 55.0094 82.4653 55.0094 80.88C55.0094 78.096 56.092 75.892 58.2574 74.268C60.4227 72.644 63.516 71.832 67.5374 71.832H75.0774V71.31C75.0774 69.0673 74.4587 67.3853 73.2214 66.264C72.0227 65.1427 70.4567 64.582 68.5234 64.582C66.822 64.582 65.3334 65.0073 64.0574 65.858C62.82 66.67 62.066 67.888 61.7954 69.512H55.6474C55.8407 67.424 56.5367 65.6453 57.7354 64.176C58.9727 62.668 60.5194 61.5273 62.3754 60.754C64.27 59.942 66.3387 59.536 68.5814 59.536C72.6027 59.536 75.7154 60.5993 77.9194 62.726C80.1234 64.814 81.2254 67.6753 81.2254 71.31V89H75.8894L75.3674 84.07C74.5554 85.6553 73.376 86.9893 71.8294 88.072C70.2827 89.1547 68.2527 89.696 65.7394 89.696ZM66.9574 84.708C68.62 84.708 70.012 84.3213 71.1334 83.548C72.2934 82.736 73.1827 81.6727 73.8014 80.358C74.4587 79.0433 74.8647 77.5933 75.0194 76.008H68.1754C65.7394 76.008 63.9994 76.4333 62.9554 77.284C61.95 78.1347 61.4474 79.198 61.4474 80.474C61.4474 81.7887 61.9307 82.8327 62.8974 83.606C63.9027 84.3407 65.256 84.708 66.9574 84.708ZM88.3938 89V60.232H93.9038L94.4258 65.684C95.4311 63.7893 96.8231 62.3007 98.6018 61.218C100.419 60.0967 102.604 59.536 105.156 59.536V65.974H103.474C101.772 65.974 100.245 66.264 98.8918 66.844C97.5771 67.3853 96.5138 68.3327 95.7018 69.686C94.9285 71.0007 94.5418 72.8373 94.5418 75.196V89H88.3938ZM123.09 89.696C120.267 89.696 117.754 89.0773 115.55 87.84C113.385 86.564 111.683 84.8047 110.446 82.562C109.209 80.3193 108.59 77.7093 108.59 74.732C108.59 71.716 109.189 69.0673 110.388 66.786C111.625 64.5047 113.327 62.726 115.492 61.45C117.696 60.174 120.248 59.536 123.148 59.536C125.971 59.536 128.426 60.174 130.514 61.45C132.602 62.6873 134.226 64.35 135.386 66.438C136.546 68.526 137.126 70.8267 137.126 73.34C137.126 73.7267 137.107 74.152 137.068 74.616C137.068 75.0413 137.049 75.5247 137.01 76.066H114.622C114.815 78.85 115.724 80.9767 117.348 82.446C119.011 83.8767 120.925 84.592 123.09 84.592C124.83 84.592 126.28 84.2053 127.44 83.432C128.639 82.62 129.528 81.5373 130.108 80.184H136.256C135.483 82.8907 133.936 85.1527 131.616 86.97C129.335 88.7873 126.493 89.696 123.09 89.696ZM123.09 64.582C121.041 64.582 119.223 65.2007 117.638 66.438C116.053 67.6367 115.086 69.454 114.738 71.89H130.978C130.862 69.6473 130.069 67.8687 128.6 66.554C127.131 65.2393 125.294 64.582 123.09 64.582Z" fill="black"/>
<rect x="49" width="7" height="7" rx="3.5" fill="#00FF87"/>
<rect x="139" y="82" width="7" height="7" rx="3.5" fill="#00FF87"/>
</svg>
