<svg width="216" height="60" viewBox="0 0 216 60" fill="none" xmlns="http://www.w3.org/2000/svg">
<path d="M15.28 15.44C18.88 15.44 21.8533 16.3867 24.2 18.28C26.5733 20.1733 28.1067 22.7333 28.8 25.96H21.56C21.0267 24.6533 20.2 23.6267 19.08 22.88C17.9867 22.1333 16.68 21.76 15.16 21.76C13.16 21.76 11.5467 22.4933 10.32 23.96C9.09333 25.4267 8.48 27.3867 8.48 29.84C8.48 32.2933 9.09333 34.2533 10.32 35.72C11.5467 37.16 13.16 37.88 15.16 37.88C16.68 37.88 17.9867 37.5067 19.08 36.76C20.2 36.0133 21.0267 35 21.56 33.72H28.8C28.1067 36.92 26.5733 39.48 24.2 41.4C21.8533 43.2933 18.88 44.24 15.28 44.24C12.5333 44.24 10.12 43.64 8.04 42.44C5.96 41.2133 4.34667 39.5067 3.2 37.32C2.08 35.1333 1.52 32.64 1.52 29.84C1.52 27.04 2.08 24.5467 3.2 22.36C4.34667 20.1733 5.96 18.48 8.04 17.28C10.12 16.0533 12.5333 15.44 15.28 15.44ZM46.0734 15.28C48.7401 15.28 51.1534 15.9067 53.3134 17.16C55.5001 18.3867 57.2201 20.1067 58.4734 22.32C59.7268 24.5067 60.3534 26.9867 60.3534 29.76C60.3534 32.5333 59.7134 35.0267 58.4334 37.24C57.1801 39.4533 55.4601 41.1867 53.2734 42.44C51.1134 43.6667 48.7134 44.28 46.0734 44.28C43.4334 44.28 41.0201 43.6667 38.8334 42.44C36.6734 41.1867 34.9534 39.4533 33.6734 37.24C32.4201 35.0267 31.7934 32.5333 31.7934 29.76C31.7934 26.9867 32.4201 24.5067 33.6734 22.32C34.9534 20.1067 36.6734 18.3867 38.8334 17.16C41.0201 15.9067 43.4334 15.28 46.0734 15.28ZM46.0734 21.64C43.8334 21.64 42.0468 22.3733 40.7134 23.84C39.4068 25.28 38.7534 27.2533 38.7534 29.76C38.7534 32.24 39.4068 34.2133 40.7134 35.68C42.0468 37.1467 43.8334 37.88 46.0734 37.88C48.2868 37.88 50.0601 37.1467 51.3934 35.68C52.7268 34.2133 53.3934 32.24 53.3934 29.76C53.3934 27.28 52.7268 25.3067 51.3934 23.84C50.0868 22.3733 48.3134 21.64 46.0734 21.64ZM70.8359 15.72V32.04C70.8359 33.9067 71.2493 35.3333 72.0759 36.32C72.9293 37.3067 74.1559 37.8 75.7559 37.8C77.3559 37.8 78.5693 37.3067 79.3959 36.32C80.2493 35.3333 80.6759 33.9067 80.6759 32.04V15.72H87.5159V32.04C87.5159 34.7067 86.9959 36.96 85.9559 38.8C84.9159 40.6133 83.4893 41.9867 81.6759 42.92C79.8893 43.8267 77.8626 44.28 75.5959 44.28C73.3293 44.28 71.3293 43.8267 69.5959 42.92C67.8626 42.0133 66.5026 40.64 65.5159 38.8C64.5293 36.96 64.0359 34.7067 64.0359 32.04V15.72H70.8359ZM106.607 44L100.487 33.32H98.9266V44H92.0866V15.72H103.767C106.007 15.72 107.9 16.1067 109.447 16.88C110.993 17.6533 112.153 18.72 112.927 20.08C113.7 21.4133 114.087 22.9467 114.087 24.68C114.087 26.7333 113.513 28.48 112.367 29.92C111.247 31.36 109.607 32.3467 107.447 32.88L114.167 44H106.607ZM98.9266 28.64H103.167C104.527 28.64 105.527 28.3467 106.167 27.76C106.807 27.1467 107.127 26.2533 107.127 25.08C107.127 23.96 106.793 23.08 106.127 22.44C105.487 21.8 104.5 21.48 103.167 21.48H98.9266V28.64ZM137.836 36.04C137.836 37.5333 137.45 38.9067 136.676 40.16C135.93 41.4133 134.81 42.4133 133.316 43.16C131.85 43.9067 130.063 44.28 127.956 44.28C124.783 44.28 122.17 43.5067 120.116 41.96C118.063 40.4133 116.943 38.2533 116.756 35.48H124.036C124.143 36.5467 124.516 37.3867 125.156 38C125.823 38.6133 126.663 38.92 127.676 38.92C128.556 38.92 129.25 38.68 129.756 38.2C130.263 37.72 130.516 37.08 130.516 36.28C130.516 35.56 130.276 34.96 129.796 34.48C129.343 34 128.77 33.6133 128.076 33.32C127.383 33 126.423 32.6267 125.196 32.2C123.41 31.5867 121.943 31 120.796 30.44C119.676 29.8533 118.703 29 117.876 27.88C117.076 26.7333 116.676 25.2533 116.676 23.44C116.676 21.76 117.103 20.3067 117.956 19.08C118.81 17.8533 119.983 16.92 121.476 16.28C122.996 15.6133 124.73 15.28 126.676 15.28C129.823 15.28 132.316 16.0267 134.156 17.52C136.023 19.0133 137.076 21.0667 137.316 23.68H129.916C129.783 22.7467 129.436 22.0133 128.876 21.48C128.343 20.92 127.61 20.64 126.676 20.64C125.876 20.64 125.223 20.8533 124.716 21.28C124.236 21.7067 123.996 22.3333 123.996 23.16C123.996 23.8267 124.21 24.4 124.636 24.88C125.09 25.3333 125.65 25.7067 126.316 26C126.983 26.2933 127.943 26.6667 129.196 27.12C131.01 27.7333 132.49 28.3467 133.636 28.96C134.783 29.5467 135.77 30.4133 136.596 31.56C137.423 32.7067 137.836 34.2 137.836 36.04ZM148.458 21.16V27.08H158.018V32.24H148.458V38.52H159.218V44H141.618V15.72H159.218V21.16H148.458ZM177.622 44L171.502 33.32H169.942V44H163.102V15.72H174.782C177.022 15.72 178.916 16.1067 180.462 16.88C182.009 17.6533 183.169 18.72 183.942 20.08C184.716 21.4133 185.102 22.9467 185.102 24.68C185.102 26.7333 184.529 28.48 183.382 29.92C182.262 31.36 180.622 32.3467 178.462 32.88L185.182 44H177.622ZM169.942 28.64H174.182C175.542 28.64 176.542 28.3467 177.182 27.76C177.822 27.1467 178.142 26.2533 178.142 25.08C178.142 23.96 177.809 23.08 177.142 22.44C176.502 21.8 175.516 21.48 174.182 21.48H169.942V28.64ZM206.052 38.84H195.452L193.692 44H186.492L196.852 15.92H204.732L215.092 44H207.812L206.052 38.84ZM204.292 33.64L200.772 23.24L197.212 33.64H204.292Z" fill="#0056D2"/>
</svg>
